# xmcd CD database file
# Generated: Tue Mar 9 01:57:26 2004 by KSCD
# 
# Track frame offsets:
#       150
#       13494
#       26063
#       45012
#       57750
#       77018
#       89386
#       112719
#       124236
#       138995
#       154507
#       171600
#       184878
#       202160
#       214480
#       228018
#       251821
#       266276
#       281203
#       291480
#
# Disc length: 4152 seconds
#
# Revision: 2
# Processed by: cddbd v1.5PL3 Copyright (c) Steve Scherf et al.
# Submitted via: Kscd 1.3.3
#
DISCID=27103614
DTITLE=Nan Bostic and Tom Brier - Dualing at the McCoys
DYEAR=1900
DGENRE=
TTITLE0=Margery
TTITLE1=Hiawatha A Summer Idyl
TTITLE2=Dolores
TTITLE3=Neath Southern Skies
TTITLE4=The Smoky Topaz
TTITLE5=Ma Ragtime Baby
TTITLE6=Echoes from the Snowball Club
TTITLE7=Pearl of the Harem
TTITLE8=Silver Heels
TTITLE9=Sue
TTITLE10=Cherry Intermezzo
TTITLE11=Sugar Plum
TTITLE12=Louisiana
TTITLE13=Sanitol March
TTITLE14=The Lady-Bugs Review
TTITLE15=Dark Eyes
TTITLE16=That Poker Rag
TTITLE17=Indian Summer
TTITLE18=Cotton Time
TTITLE19=Borneo Rag
EXTD=Featuring the Ragtime Era music of Chas. N. Daniels
EXTT0=
EXTT1=
EXTT2=
EXTT3=
EXTT4=
EXTT5=
EXTT6=
EXTT7=
EXTT8=
EXTT9=
EXTT10=
EXTT11=
EXTT12=
EXTT13=
EXTT14=
EXTT15=
EXTT16=
EXTT17=
EXTT18=
EXTT19=
PLAYORDER=
